<mxfile host="65bd71144e">
    <diagram name="Page-1" id="QntHVpADTiczpnDUMF4T">
        <mxGraphModel dx="605" dy="659" grid="1" gridSize="10" guides="1" tooltips="1" connect="1" arrows="1" fold="1" page="1" pageScale="1" pageWidth="827" pageHeight="1169" math="0" shadow="0">
            <root>
                <mxCell id="0"/>
                <mxCell id="1" parent="0"/>
                <mxCell id="8" value="" style="shape=cube;whiteSpace=wrap;html=1;boundedLbl=1;backgroundOutline=1;darkOpacity=0.05;darkOpacity2=0.1;" parent="1" vertex="1">
                    <mxGeometry x="200" y="250" width="1010" height="510" as="geometry"/>
                </mxCell>
                <mxCell id="gRkpCn2g-Qk6FfWMOnhu-2" value="mongodb" style="shape=cylinder3;whiteSpace=wrap;html=1;boundedLbl=1;backgroundOutline=1;size=15;fontStyle=1;fontSize=16;" parent="1" vertex="1">
                    <mxGeometry x="1030" y="460" width="120" height="150" as="geometry"/>
                </mxCell>
                <mxCell id="gRkpCn2g-Qk6FfWMOnhu-1" value="DockerDesktop&lt;br style=&quot;font-size: 32px;&quot;&gt;Git - Github HesabÄ±&lt;br style=&quot;font-size: 32px;&quot;&gt;IDE(VsCode, IntelliJ, ...)" style="text;html=1;strokeColor=none;fillColor=none;align=center;verticalAlign=middle;whiteSpace=wrap;rounded=0;fontStyle=1;fontSize=32;" parent="1" vertex="1">
                    <mxGeometry x="190" width="520" height="120" as="geometry"/>
                </mxCell>
                <mxCell id="gRkpCn2g-Qk6FfWMOnhu-3" value="" style="shape=flexArrow;endArrow=classic;html=1;rounded=0;" parent="1" source="gRkpCn2g-Qk6FfWMOnhu-4" target="gRkpCn2g-Qk6FfWMOnhu-2" edge="1">
                    <mxGeometry width="50" height="50" relative="1" as="geometry">
                        <mxPoint x="1100" y="700" as="sourcePoint"/>
                        <mxPoint x="1100" y="810" as="targetPoint"/>
                    </mxGeometry>
                </mxCell>
                <mxCell id="gRkpCn2g-Qk6FfWMOnhu-4" value="Data" style="rounded=0;whiteSpace=wrap;html=1;" parent="1" vertex="1">
                    <mxGeometry x="1030" y="320" width="120" height="60" as="geometry"/>
                </mxCell>
                <mxCell id="gRkpCn2g-Qk6FfWMOnhu-7" value="SPA&lt;br&gt;Vue.js" style="image;aspect=fixed;html=1;points=[];align=center;fontSize=21;image=img/lib/azure2/general/Browser.svg;" parent="1" vertex="1">
                    <mxGeometry x="250" y="460" width="187.5" height="150" as="geometry"/>
                </mxCell>
                <mxCell id="gRkpCn2g-Qk6FfWMOnhu-8" value="Actor" style="shape=umlActor;verticalLabelPosition=bottom;verticalAlign=top;html=1;outlineConnect=0;" parent="1" vertex="1">
                    <mxGeometry x="10" y="442.5" width="150" height="185" as="geometry"/>
                </mxCell>
                <mxCell id="gRkpCn2g-Qk6FfWMOnhu-9" value="" style="shape=flexArrow;endArrow=classic;startArrow=classic;html=1;rounded=0;" parent="1" target="gRkpCn2g-Qk6FfWMOnhu-7" edge="1">
                    <mxGeometry width="100" height="100" relative="1" as="geometry">
                        <mxPoint x="155" y="535" as="sourcePoint"/>
                        <mxPoint x="220" y="509.5" as="targetPoint"/>
                    </mxGeometry>
                </mxCell>
                <mxCell id="gRkpCn2g-Qk6FfWMOnhu-15" value="API&lt;br&gt;Python" style="image;aspect=fixed;html=1;points=[];align=center;fontSize=25;image=img/lib/azure2/integration/API_Management_Services.svg;" parent="1" vertex="1">
                    <mxGeometry x="827" y="505" width="65" height="60" as="geometry"/>
                </mxCell>
                <mxCell id="gRkpCn2g-Qk6FfWMOnhu-16" value="" style="shape=flexArrow;endArrow=classic;startArrow=classic;html=1;rounded=0;entryX=-0.051;entryY=0.517;entryDx=0;entryDy=0;entryPerimeter=0;" parent="1" source="gRkpCn2g-Qk6FfWMOnhu-21" target="gRkpCn2g-Qk6FfWMOnhu-15" edge="1">
                    <mxGeometry width="100" height="100" relative="1" as="geometry">
                        <mxPoint x="671" y="543" as="sourcePoint"/>
                        <mxPoint x="772.5" y="674.29" as="targetPoint"/>
                    </mxGeometry>
                </mxCell>
                <mxCell id="gRkpCn2g-Qk6FfWMOnhu-19" value="" style="shape=flexArrow;endArrow=classic;startArrow=classic;html=1;rounded=0;entryX=-0.077;entryY=0.517;entryDx=0;entryDy=0;entryPerimeter=0;" parent="1" source="gRkpCn2g-Qk6FfWMOnhu-7" target="gRkpCn2g-Qk6FfWMOnhu-21" edge="1">
                    <mxGeometry width="100" height="100" relative="1" as="geometry">
                        <mxPoint x="470" y="550" as="sourcePoint"/>
                        <mxPoint x="600" y="640" as="targetPoint"/>
                    </mxGeometry>
                </mxCell>
                <mxCell id="gRkpCn2g-Qk6FfWMOnhu-20" value="" style="shape=flexArrow;endArrow=classic;startArrow=classic;html=1;rounded=0;" parent="1" source="gRkpCn2g-Qk6FfWMOnhu-2" target="gRkpCn2g-Qk6FfWMOnhu-15" edge="1">
                    <mxGeometry width="100" height="100" relative="1" as="geometry">
                        <mxPoint x="789.5" y="670" as="sourcePoint"/>
                        <mxPoint x="892" y="670" as="targetPoint"/>
                    </mxGeometry>
                </mxCell>
                <mxCell id="gRkpCn2g-Qk6FfWMOnhu-21" value="API&lt;br&gt;Reverse Proxy" style="image;aspect=fixed;html=1;points=[];align=center;fontSize=25;image=img/lib/azure2/integration/API_Management_Services.svg;" parent="1" vertex="1">
                    <mxGeometry x="600" y="505" width="65" height="60" as="geometry"/>
                </mxCell>
                <mxCell id="9" value="Docker" style="text;html=1;align=center;verticalAlign=middle;resizable=0;points=[];autosize=1;strokeColor=none;fillColor=none;fontSize=50;" parent="1" vertex="1">
                    <mxGeometry x="640" y="760" width="180" height="70" as="geometry"/>
                </mxCell>
            </root>
        </mxGraphModel>
    </diagram>
</mxfile>